<?xml version="1.0" encoding="UTF-8" standalone="no"?>
<!-- Created with Inkscape (http://www.inkscape.org/) -->

<svg
   version="1.1"
   id="svg2"
   width="443.556"
   height="188.88933"
   viewBox="0 0 443.556 188.88933"
   sodipodi:docname="GEMS logo 2024 final.ai"
   xmlns:inkscape="http://www.inkscape.org/namespaces/inkscape"
   xmlns:sodipodi="http://sodipodi.sourceforge.net/DTD/sodipodi-0.dtd"
   xmlns="http://www.w3.org/2000/svg"
   xmlns:svg="http://www.w3.org/2000/svg">
  <defs
     id="defs6">
    <clipPath
       clipPathUnits="userSpaceOnUse"
       id="clipPath16">
      <path
         d="M 0,141.667 H 332.667 V 0 H 0 Z"
         id="path14" />
    </clipPath>
  </defs>
  <sodipodi:namedview
     id="namedview4"
     pagecolor="#ffffff"
     bordercolor="#000000"
     borderopacity="0.25"
     inkscape:showpageshadow="2"
     inkscape:pageopacity="0.0"
     inkscape:pagecheckerboard="0"
     inkscape:deskcolor="#d1d1d1" />
  <g
     id="g8"
     inkscape:groupmode="layer"
     inkscape:label="GEMS logo 2024 final"
     transform="matrix(1.3333333,0,0,-1.3333333,0,188.88933)">
    <g
       id="g10">
      <g
         id="g12"
         clip-path="url(#clipPath16)">
        <g
           id="g18"
           transform="translate(72.5042,100.2741)">
          <path
             d="m 0,0 h -19.767 c -1.099,0 -1.99,-0.891 -1.99,-1.989 v -7.56 c 0,-1.099 0.891,-1.99 1.99,-1.99 h 8.23 c 1.099,0 1.989,-0.89 1.989,-1.989 v -23.32 c 0,-1.099 -0.89,-1.989 -1.989,-1.989 h -3.611 c -11.974,0 -19.94,3.975 -24.355,12.151 -2.071,3.834 -3.171,7.837 -3.274,11.888 -0.154,6.706 2.275,12.32 7.422,17.166 5.236,4.93 11.151,7.326 18.084,7.326 h 5.057 0.462 1.816 2.441 2.278 2.44 2.278 0.391 c 0.578,0 1.094,0.251 1.458,0.645 0.327,0.354 0.532,0.824 0.532,1.345 v 7.383 c 0,1.099 -0.891,1.989 -1.99,1.989 h -0.391 -2.278 -2.44 -2.278 -2.441 -1.816 -0.462 -4.172 c -10.378,0 -19.266,-3.203 -26.402,-9.504 -7.707,-6.729 -11.614,-15.503 -11.614,-26.079 0,-10.404 3.544,-19.026 10.529,-25.625 7.282,-6.901 17.244,-10.401 29.61,-10.401 H 0 c 1.099,0 1.99,0.891 1.99,1.99 V -1.989 C 1.99,-0.891 1.099,0 0,0"
             style="fill:#00427a;fill-opacity:1;fill-rule:nonzero;stroke:none"
             id="path20" />
        </g>
        <g
           id="g22"
           transform="translate(299.0755,96.7922)">
          <path
             d="m 0,0 c -3.704,2.093 -8.109,3.154 -13.095,3.154 h -12.404 c -1.391,0 -2.53,0.276 -3.387,0.786 -0.93,0.597 -2.01,1.646 -2.103,4.454 -0.034,1.409 0.361,2.447 1.28,3.365 0.969,0.969 2.087,1.42 3.516,1.42 H 5.94 c 0.588,0 1.112,0.264 1.48,0.679 0.33,0.372 0.537,0.864 0.537,1.41 v 7.181 c 0,1.154 -0.903,2.089 -2.017,2.089 h -7.028 -25.625 c -2.863,0 -5.513,-0.76 -7.873,-2.259 -4.934,-3.128 -7.541,-8.024 -7.541,-14.157 0,-4.983 1.506,-9.031 4.476,-12.027 2.942,-2.972 6.856,-4.48 11.632,-4.48 h 13.098 c 2.634,0 4.866,-0.55 6.829,-1.683 4.037,-2.325 6.262,-5.898 6.795,-10.918 0.012,-0.116 0.018,-0.236 0.015,-0.352 -0.049,-2.753 -0.69,-5.207 -1.954,-7.489 -2.855,-5.152 -6.812,-7.552 -12.452,-7.552 H -40.11 c -1.114,0 -2.017,-0.935 -2.017,-2.089 v -6.822 c 0,-1.153 0.903,-2.088 2.017,-2.088 h 27.631 c 6.798,0 12.669,2.608 17.45,7.752 4.753,5.114 7.129,11.274 7.063,18.331 C 11.896,-11.548 7.842,-4.38 0,0"
             style="fill:#00427a;fill-opacity:1;fill-rule:nonzero;stroke:none"
             id="path24" />
        </g>
        <g
           id="g26"
           transform="translate(102.265,109.6149)">
          <path
             d="m 0,0 h 38.712 c 1.11,0 2.01,0.9 2.01,2.01 v 7.696 c 0,1.11 -0.9,2.009 -2.01,2.009 h -50.78 c -1.11,0 -2.01,-0.899 -2.01,-2.009 v -67.59 c 0,-1.11 0.9,-2.01 2.01,-2.01 h 50.78 c 0.598,0 1.129,0.267 1.497,0.682 0.315,0.355 0.513,0.816 0.513,1.328 v 7.519 c 0,1.11 -0.9,2.01 -2.01,2.01 H 31.249 0 c -1.11,0 -2.01,0.9 -2.01,2.01 v 22.484 c 0,1.11 0.9,2.009 2.01,2.009 h 38.712 c 1.11,0 2.01,0.9 2.01,2.01 v 7.873 c 0,1.11 -0.9,2.009 -2.01,2.009 L 0,-9.96 c -1.11,0 -2.01,0.9 -2.01,2.01 v 5.94 C -2.01,-0.9 -1.11,0 0,0"
             style="fill:#00427a;fill-opacity:1;fill-rule:nonzero;stroke:none"
             id="path28" />
        </g>
        <g
           id="g30"
           transform="translate(243.1663,119.5563)">
          <path
             d="m 0,0 v -68.049 c 0,-1.039 -0.842,-1.882 -1.881,-1.882 h -9.813 v 55.694 c -17.543,4.291 -31.588,-9.456 -31.588,-9.456 7.425,14.574 33.207,23.101 41.02,25.394 C -1.127,2.034 0,1.182 0,0"
             style="fill:#801416;fill-opacity:1;fill-rule:nonzero;stroke:none"
             id="path32" />
        </g>
        <g
           id="g34"
           transform="translate(156.7757,119.5475)">
          <path
             d="m 0,0 v -69.922 h 11.694 v 55.693 c 17.543,4.292 31.588,-9.456 31.588,-9.456 C 35.86,-9.115 10.094,-0.589 2.27,1.708 1.132,2.042 0,1.186 0,0"
             style="fill:#00427a;fill-opacity:1;fill-rule:nonzero;stroke:none"
             id="path36" />
        </g>
        <g
           id="g38"
           transform="translate(162.7928,114.8742)">
          <path
             d="M 0,0 0.969,-1.963 3.135,-2.278 1.568,-3.806 1.938,-5.964 0,-4.945 l -1.938,-1.019 0.37,2.158 -1.567,1.528 2.166,0.315 z"
             style="fill:#ffffff;fill-opacity:1;fill-rule:nonzero;stroke:none"
             id="path40" />
        </g>
        <g
           id="g42"
           transform="translate(162.7928,104.4035)">
          <path
             d="M 0,0 0.969,-1.963 3.135,-2.278 1.568,-3.806 1.938,-5.964 0,-4.945 l -1.938,-1.019 0.37,2.158 -1.567,1.528 2.166,0.315 z"
             style="fill:#ffffff;fill-opacity:1;fill-rule:nonzero;stroke:none"
             id="path44" />
        </g>
        <g
           id="g46"
           transform="translate(162.7928,93.9333)">
          <path
             d="M 0,0 0.969,-1.963 3.135,-2.278 1.568,-3.806 1.938,-5.964 0,-4.945 l -1.938,-1.019 0.37,2.158 -1.567,1.528 2.166,0.315 z"
             style="fill:#ffffff;fill-opacity:1;fill-rule:nonzero;stroke:none"
             id="path48" />
        </g>
        <g
           id="g50"
           transform="translate(162.7928,83.4631)">
          <path
             d="M 0,0 0.969,-1.963 3.135,-2.278 1.568,-3.806 1.938,-5.964 0,-4.945 l -1.938,-1.019 0.37,2.158 -1.567,1.528 2.166,0.315 z"
             style="fill:#ffffff;fill-opacity:1;fill-rule:nonzero;stroke:none"
             id="path52" />
        </g>
        <g
           id="g54"
           transform="translate(162.7928,72.9928)">
          <path
             d="M 0,0 0.969,-1.963 3.135,-2.278 1.568,-3.806 1.938,-5.964 0,-4.945 l -1.938,-1.019 0.37,2.158 -1.567,1.528 2.166,0.315 z"
             style="fill:#ffffff;fill-opacity:1;fill-rule:nonzero;stroke:none"
             id="path56" />
        </g>
        <g
           id="g58"
           transform="translate(183.5365,83.1623)">
          <path
             d="m 0,0 c -0.736,-0.214 -1.442,-0.463 -2.137,-0.753 -0.031,-0.012 -0.05,-0.019 -0.05,-0.019 1.679,0.076 2.643,0.089 3.175,0.087 0.403,-0.002 0.566,-0.012 0.566,-0.012 L 2.2,0.553 C 1.622,0.485 0.787,0.252 0,0"
             style="fill:#00427a;fill-opacity:1;fill-rule:nonzero;stroke:none"
             id="path60" />
        </g>
        <g
           id="g62"
           transform="translate(205.2855,89.7272)">
          <path
             d="m 0,0 c 0.07,-0.031 0.139,-0.062 0.208,-0.094 0.023,-0.003 0.05,-0.007 0.05,-0.007 0,0 -0.094,0.038 -0.258,0.101"
             style="fill:#00427a;fill-opacity:1;fill-rule:nonzero;stroke:none"
             id="path64" />
        </g>
        <g
           id="g66"
           transform="translate(192.7694,93.1418)">
          <path
             d="M 0,0 C 0.036,0.035 0.069,0.068 0.105,0.104 0.07,0.069 0.035,0.035 0,0"
             style="fill:#00427a;fill-opacity:1;fill-rule:nonzero;stroke:none"
             id="path68" />
        </g>
        <g
           id="g70"
           transform="translate(197.2171,97.1003)">
          <path
             d="m 0,0 c -0.203,-0.004 -0.403,-0.023 -0.606,-0.031 -2.623,-0.097 -5.184,-0.49 -7.656,-1.358 -3.975,-1.273 -6.302,-2.954 -6.302,-2.954 -6.099,-3.644 -8.997,-9.45 -10.345,-13.555 -0.072,-0.21 -0.151,-0.416 -0.217,-0.628 -0.399,-1.264 -0.717,-2.547 -0.862,-3.867 -0.028,-0.2 -0.038,-0.308 -0.038,-0.308 0.446,1.231 0.926,2.443 1.511,3.613 0.297,0.595 0.629,1.164 0.97,1.726 2.655,4.271 7.838,9.853 17.367,11.781 0.235,0.039 0.365,0.203 0.505,0.354 0.399,0.434 0.808,0.855 1.225,1.269 0.035,0.034 0.071,0.068 0.106,0.103 1.172,1.137 2.829,2.662 4.319,3.73 0.062,0.045 0.126,0.093 0.187,0.136 z"
             style="fill:#00427a;fill-opacity:1;fill-rule:nonzero;stroke:none"
             id="path72" />
        </g>
        <g
           id="g74"
           transform="translate(223.3348,65.5246)">
          <path
             d="M 0,0 C 0.006,0.03 0.012,0.061 0.018,0.092 0.049,0.267 0.077,0.444 0.104,0.622 0.206,1.22 0.279,1.823 0.319,2.433 0.338,2.658 0.36,2.88 0.374,3.108 0.552,4.934 0.515,6.754 0.221,8.568 0.089,9.882 -0.19,11.166 -0.588,12.423 h 0.001 c -0.005,0.034 -0.017,0.051 -0.024,0.078 -0.013,0.04 -0.023,0.079 -0.035,0.119 -0.001,0.001 -0.002,0 -0.003,0.002 -0.081,0.152 -0.2,0.152 -0.2,0.152 C -11.89,8.399 -18.27,-4.285 -18.27,-4.285 c 0,0 0.02,0.025 0.057,0.074 0.39,0.51 2.762,3.568 5.926,6.534 0.197,-0.342 1.804,-3.142 2.684,-5.275 l 0.35,-0.93 c -0.016,0.621 -0.059,1.207 -0.119,1.761 -0.313,3.26 -1.052,5.22 -1.325,5.855 2.027,1.715 4.264,3.248 6.468,4.026 l 0.042,0.016 c 0,0 0.267,0.138 0.302,0.079 0.035,-0.059 4.337,-11.867 -5.314,-23.161 0,0 0.065,0.045 0.176,0.129 0.149,0.101 0.3,0.201 0.434,0.319 0.093,0.081 0.18,0.169 0.272,0.251 C -6.308,-12.893 -1.455,-8.021 0,0"
             style="fill:#00427a;fill-opacity:1;fill-rule:nonzero;stroke:none"
             id="path76" />
        </g>
        <g
           id="g78"
           transform="translate(201.1873,96.8029)">
          <path
             d="M 0,0 C -0.097,0.007 -0.072,0.007 -0.145,0.003 -0.278,-0.008 -0.406,-0.04 -0.533,-0.114 -2.06,-1.012 -3.549,-1.963 -4.91,-3.103 c -2.328,-1.71 -4.343,-3.742 -6.158,-5.981 -1.804,-2.052 -3.346,-4.285 -4.644,-6.687 -1.098,-1.82 -2.014,-3.727 -2.756,-5.717 -1.008,-2.398 -1.706,-4.888 -2.215,-7.434 -0.321,-1.603 -0.549,-3.218 -0.579,-4.865 0.159,0.386 0.284,0.778 0.402,1.173 1.014,2.798 4.028,10.197 9.851,17.707 2.237,-0.5 4.491,-1.289 5.832,-1.8 0.397,-0.158 0.796,-0.314 1.192,-0.476 0.232,-0.095 0.363,-0.09 0.515,0.14 0.486,0.738 0.994,1.463 1.508,2.183 0.106,0.148 0.154,0.265 0.116,0.364 -0.018,0.08 -0.068,0.12 -0.068,0.12 -2.991,1.323 -5.78,1.671 -7.222,1.76 2.038,2.383 4.325,4.71 6.975,6.876 -10e-4,0.005 0.034,0.028 0.033,0.032 0,0 0.203,0.194 0.586,0.318 0.349,-0.037 1.47,-0.187 3.114,-0.689 0.133,-0.053 0.263,-0.105 0.396,-0.158 l 2.703,-1.098 c 0.227,-0.113 0.379,-0.075 0.566,0.074 0,0 2.649,1.969 4.32,3.067 0.22,0.14 0.433,0.275 0.661,0.419 C 5.502,-0.577 0,0 0,0"
             style="fill:#00427a;fill-opacity:1;fill-rule:nonzero;stroke:none"
             id="path80" />
        </g>
        <g
           id="g82"
           transform="translate(221.8089,80.7463)">
          <path
             d="m 0,0 c -0.12,0.274 -0.25,0.542 -0.375,0.813 -0.921,1.89 -3.569,6.698 -8.073,9.969 -0.018,-0.006 -0.039,-0.015 -0.057,-0.021 -0.006,0 -0.011,-0.002 -0.016,-0.003 -0.118,-0.04 -0.323,-0.118 -0.483,-0.179 -2.991,-1.177 -6.912,-4.733 -6.912,-4.733 l -0.048,-0.043 c -1.667,-1.422 -3.254,-2.928 -4.618,-4.656 -0.984,-1.072 -1.889,-2.206 -2.661,-3.443 -0.796,-1.048 -1.492,-2.159 -2.118,-3.316 -0.02,-0.035 -0.04,-0.072 -0.06,-0.107 -0.083,-0.148 -0.167,-0.297 -0.25,-0.445 -0.021,-0.035 -0.041,-0.071 -0.061,-0.107 -0.041,-0.076 -0.081,-0.151 -0.122,-0.227 -0.995,-1.779 -1.884,-3.608 -2.563,-5.534 -1.179,-2.929 -1.937,-5.965 -2.312,-9.103 0.396,1.035 0.826,2.052 1.272,3.061 2.864,7.391 6.735,11.901 8.54,13.73 0.186,0.185 0.449,0.443 0.673,0.655 0.209,0.193 0.338,0.304 0.338,0.304 2.906,-1.469 7.406,-7.094 7.406,-7.094 l 0.027,-0.02 c 0.106,-0.035 0.125,0 0.235,0.134 0.386,0.471 0.784,0.933 1.193,1.385 0.114,0.127 0.151,0.244 0.135,0.368 l 0.004,-0.002 c -10e-4,0.003 -0.004,0.007 -0.005,0.01 -0.011,0.075 -0.036,0.152 -0.089,0.239 -0.027,0.047 -0.058,0.092 -0.086,0.138 -1.352,2.83 -5.212,6.792 -6.031,7.615 1,0.846 3.307,2.757 5.364,4.155 0.161,0.104 0.319,0.212 0.482,0.314 0.506,0.31 1.088,0.653 1.305,0.731 0.097,0.019 0.197,0.019 0.306,-0.085 0,0 3.65,-3.576 5.358,-7.076 0,0 -0.005,0.023 -0.015,0.062 0.129,-0.249 0.265,-0.286 0.532,-0.1 1.141,0.795 2.339,1.499 3.574,2.137 C 0.009,-0.361 0.118,-0.27 0,0"
             style="fill:#00427a;fill-opacity:1;fill-rule:nonzero;stroke:none"
             id="path84" />
        </g>
        <path
           d="M 220.477,61.109 H 156.775 V 49.626 h 63.702 z"
           style="fill:#801416;fill-opacity:1;fill-rule:nonzero;stroke:none"
           id="path86" />
        <path
           d="m 220.477,53.428 h -63.702 v 3.877 h 63.702 z"
           style="fill:#ffffff;fill-opacity:1;fill-rule:nonzero;stroke:none"
           id="path88" />
        <g
           id="g90"
           transform="translate(19.0125,32.9714)">
          <path
             d="m 0,0 c 0.033,0.996 0.094,1.812 0.182,2.448 0.088,0.635 0.262,1.202 0.521,1.7 0.259,0.498 0.659,0.884 1.2,1.159 0.54,0.275 1.258,0.412 2.151,0.412 C 5.136,5.708 5.991,5.504 6.62,5.109 7.249,4.714 7.689,3.99 7.943,2.937 8.01,2.662 8.048,2.244 8.059,1.683 V 1.374 H 5.742 C 5.731,1.775 5.709,2.104 5.676,2.362 5.643,2.619 5.571,2.854 5.461,3.066 5.351,3.277 5.182,3.446 4.957,3.572 4.73,3.698 4.429,3.767 4.054,3.779 3.679,3.779 3.378,3.69 3.152,3.512 2.926,3.335 2.758,3.094 2.648,2.791 2.538,2.487 2.466,2.156 2.433,1.795 2.399,1.434 2.383,1.014 2.383,0.533 V -3.04 c 0,-0.355 0.016,-0.681 0.05,-0.979 0.033,-0.297 0.105,-0.586 0.215,-0.867 0.11,-0.281 0.278,-0.51 0.504,-0.687 0.226,-0.177 0.527,-0.266 0.902,-0.266 0.607,0 1.043,0.292 1.308,0.876 0.264,0.584 0.397,1.425 0.397,2.525 H 4.154 v 1.889 H 8.01 V -7.471 H 6.272 v 1.477 H 6.239 C 6.029,-6.612 5.734,-7.056 5.354,-7.325 4.973,-7.594 4.54,-7.746 4.054,-7.78 c -0.915,0 -1.649,0.143 -2.2,0.429 -0.552,0.287 -0.96,0.687 -1.225,1.203 C 0.364,-5.633 0.193,-5.041 0.116,-4.371 0.039,-3.701 0,-2.856 0,-1.837 Z"
             style="fill:#801416;fill-opacity:1;fill-rule:nonzero;stroke:none"
             id="path92" />
        </g>
        <g
           id="g94"
           transform="translate(29.3392,25.5007)">
          <path
             d="M 0,0 V 12.881 H 2.316 V 1.889 H 6.619 V 0 Z"
             style="fill:#801416;fill-opacity:1;fill-rule:nonzero;stroke:none"
             id="path96" />
        </g>
        <g
           id="g98"
           transform="translate(39.8807,29.9318)">
          <path
             d="M 0,0 C 0,-0.355 0.017,-0.682 0.049,-0.979 0.083,-1.277 0.154,-1.566 0.265,-1.846 0.375,-2.127 0.543,-2.356 0.77,-2.533 0.996,-2.711 1.296,-2.8 1.671,-2.8 c 0.386,0 0.698,0.092 0.935,0.275 0.237,0.183 0.406,0.421 0.505,0.713 0.099,0.292 0.163,0.592 0.19,0.902 0.028,0.309 0.042,0.681 0.042,1.116 V 3.503 C 3.343,3.95 3.329,4.345 3.301,4.688 3.274,5.032 3.208,5.367 3.103,5.693 2.998,6.02 2.83,6.289 2.598,6.5 2.366,6.712 2.057,6.818 1.671,6.818 1.296,6.818 0.996,6.729 0.77,6.552 0.543,6.375 0.375,6.134 0.265,5.831 0.154,5.527 0.083,5.195 0.049,4.834 0.017,4.474 0,4.053 0,3.572 Z m -2.383,3.04 c 0.033,0.996 0.093,1.812 0.182,2.447 0.088,0.636 0.262,1.202 0.521,1.7 0.259,0.499 0.659,0.885 1.2,1.16 0.541,0.275 1.258,0.412 2.151,0.412 0.894,0 1.611,-0.137 2.152,-0.412 C 4.363,8.072 4.763,7.686 5.022,7.187 5.282,6.689 5.455,6.123 5.543,5.487 5.632,4.852 5.693,4.036 5.726,3.04 V 1.202 C 5.726,0.183 5.687,-0.661 5.61,-1.331 5.533,-2.001 5.362,-2.593 5.097,-3.109 4.832,-3.624 4.424,-4.025 3.872,-4.311 3.32,-4.597 2.587,-4.74 1.671,-4.74 c -0.916,0 -1.649,0.143 -2.201,0.429 -0.552,0.286 -0.959,0.687 -1.224,1.202 -0.265,0.516 -0.436,1.108 -0.513,1.778 -0.078,0.67 -0.116,1.514 -0.116,2.533 z"
             style="fill:#801416;fill-opacity:1;fill-rule:nonzero;stroke:none"
             id="path100" />
        </g>
        <g
           id="g102"
           transform="translate(50.4886,27.3898)">
          <path
             d="M 0,0 C 0.43,0 0.736,0.009 0.918,0.026 1.1,0.043 1.257,0.08 1.39,0.137 1.677,0.263 1.867,0.486 1.961,0.807 2.054,1.127 2.102,1.5 2.102,1.923 2.102,2.656 1.988,3.169 1.762,3.46 1.536,3.752 1.081,3.898 0.397,3.898 H -0.497 V 0 Z m -0.066,5.788 c 0.452,0 0.805,0.025 1.059,0.077 C 1.247,5.917 1.445,6.04 1.588,6.234 1.754,6.486 1.837,6.95 1.837,7.625 1.837,8.141 1.751,8.513 1.58,8.742 1.409,8.971 1.075,9.091 0.579,9.103 H -0.497 V 5.788 Z m -2.747,-7.677 v 12.881 h 3.739 c 0.618,0 1.137,-0.06 1.556,-0.18 C 2.901,10.691 3.26,10.436 3.558,10.047 3.8,9.727 3.963,9.386 4.046,9.025 4.128,8.665 4.17,8.232 4.17,7.729 4.17,7.076 4.065,6.518 3.855,6.054 3.646,5.59 3.254,5.25 2.681,5.032 V 4.998 C 3.31,4.906 3.767,4.603 4.054,4.087 4.341,3.572 4.484,2.879 4.484,2.009 4.484,1.391 4.429,0.864 4.319,0.429 4.076,-0.384 3.715,-0.973 3.235,-1.339 2.755,-1.706 2.102,-1.889 1.274,-1.889 Z"
             style="fill:#801416;fill-opacity:1;fill-rule:nonzero;stroke:none"
             id="path104" />
        </g>
        <g
           id="g106"
           transform="translate(59.408,30.653)">
          <path
             d="M 0,0 H 1.986 L 1.357,3.658 C 1.291,3.979 1.225,4.465 1.159,5.118 L 1.125,5.444 C 1.114,5.662 1.087,5.948 1.043,6.303 H 1.01 C 0.965,5.948 0.938,5.662 0.927,5.444 L 0.894,5.118 C 0.828,4.465 0.761,3.979 0.695,3.658 Z M -3.458,-5.152 -0.496,7.729 H 2.631 L 5.445,-5.152 H 2.962 L 2.35,-1.889 h -2.714 l -0.612,-3.263 z"
             style="fill:#801416;fill-opacity:1;fill-rule:nonzero;stroke:none"
             id="path108" />
        </g>
        <g
           id="g110"
           transform="translate(66.1273,25.5007)">
          <path
             d="M 0,0 V 12.881 H 2.316 V 1.889 H 6.619 V 0 Z"
             style="fill:#801416;fill-opacity:1;fill-rule:nonzero;stroke:none"
             id="path112" />
        </g>
        <g
           id="g114"
           transform="translate(78.4725,25.5007)">
          <path
             d="M 0,0 V 12.881 H 6.52 V 10.992 H 2.317 V 7.746 H 6.189 V 5.856 H 2.317 V 1.889 H 6.52 V 0 Z"
             style="fill:#801416;fill-opacity:1;fill-rule:nonzero;stroke:none"
             id="path116" />
        </g>
        <g
           id="g118"
           transform="translate(90.2054,27.3898)">
          <path
             d="M 0,0 C 0.519,0 0.924,0.08 1.216,0.24 1.509,0.401 1.727,0.658 1.87,1.013 2.014,1.368 2.104,1.835 2.143,2.413 2.182,2.991 2.201,3.807 2.201,4.86 2.201,6.44 2.088,7.542 1.862,8.167 1.636,8.791 1.186,9.103 0.513,9.103 H -1.009 V 0 Z m -3.326,-1.889 v 12.881 h 4.832 c 0.165,0 0.348,-0.02 0.546,-0.06 C 2.251,10.891 2.449,10.82 2.648,10.717 3.167,10.465 3.585,10.07 3.906,9.532 4.159,9.108 4.336,8.544 4.435,7.84 4.535,7.136 4.584,6.217 4.584,5.083 4.584,4.225 4.57,3.503 4.543,2.92 4.515,2.336 4.443,1.749 4.328,1.159 4.212,0.569 4.021,0.04 3.757,-0.429 3.492,-0.899 3.133,-1.271 2.681,-1.546 2.449,-1.683 2.195,-1.775 1.92,-1.82 1.644,-1.866 1.324,-1.889 0.96,-1.889 Z"
             style="fill:#801416;fill-opacity:1;fill-rule:nonzero;stroke:none"
             id="path120" />
        </g>
        <g
           id="g122"
           transform="translate(102.4847,38.3815)">
          <path
             d="m 0,0 h 2.317 v -8.982 c 0,-1.477 -0.287,-2.548 -0.86,-3.212 -0.574,-0.664 -1.595,-0.996 -3.062,-0.996 -1.478,0 -2.507,0.332 -3.086,0.996 -0.58,0.664 -0.869,1.735 -0.869,3.212 V 0 h 2.316 v -8.776 c 0,-0.378 0.017,-0.704 0.05,-0.979 0.033,-0.275 0.102,-0.524 0.207,-0.747 0.105,-0.224 0.27,-0.404 0.497,-0.541 0.225,-0.138 0.526,-0.207 0.902,-0.207 0.363,0 0.653,0.069 0.868,0.207 0.216,0.137 0.375,0.317 0.48,0.541 0.105,0.223 0.171,0.472 0.198,0.747 C -0.014,-9.48 0,-9.154 0,-8.776 Z"
             style="fill:#801416;fill-opacity:1;fill-rule:nonzero;stroke:none"
             id="path124" />
        </g>
        <g
           id="g126"
           transform="translate(114.3836,30.0861)">
          <path
             d="M 0,0 C 0,-0.034 -0.006,-0.154 -0.017,-0.36 -0.039,-0.566 -0.05,-0.693 -0.05,-0.738 -0.083,-1.368 -0.163,-1.929 -0.29,-2.421 -0.417,-2.914 -0.612,-3.346 -0.877,-3.718 -1.142,-4.09 -1.49,-4.379 -1.92,-4.585 c -0.43,-0.207 -0.96,-0.31 -1.589,-0.31 -0.915,0 -1.649,0.144 -2.2,0.43 -0.552,0.286 -0.96,0.687 -1.225,1.202 -0.265,0.515 -0.436,1.108 -0.513,1.778 -0.077,0.67 -0.116,1.514 -0.116,2.533 v 1.837 c 0.033,0.996 0.094,1.812 0.182,2.448 0.088,0.635 0.262,1.202 0.521,1.7 0.259,0.498 0.659,0.884 1.2,1.159 0.54,0.275 1.258,0.412 2.151,0.412 2.096,-0.034 3.227,-1.145 3.393,-3.331 0.033,-0.333 0.05,-0.659 0.05,-0.979 H -2.35 c -0.011,0.068 -0.023,0.206 -0.033,0.412 -0.022,0.309 -0.05,0.558 -0.083,0.747 -0.033,0.189 -0.086,0.38 -0.157,0.575 -0.072,0.195 -0.18,0.349 -0.323,0.464 -0.143,0.114 -0.331,0.172 -0.563,0.172 -0.375,0 -0.676,-0.089 -0.902,-0.267 C -4.637,6.22 -4.805,5.979 -4.915,5.676 -5.025,5.373 -5.097,5.041 -5.13,4.68 -5.164,4.319 -5.18,3.899 -5.18,3.418 v -3.572 c 0,-0.355 0.016,-0.682 0.05,-0.979 0.033,-0.298 0.105,-0.587 0.215,-0.867 0.11,-0.281 0.278,-0.51 0.504,-0.688 0.226,-0.177 0.527,-0.266 0.902,-0.266 0.265,0 0.475,0.083 0.629,0.249 0.155,0.166 0.271,0.378 0.348,0.636 0.077,0.257 0.127,0.521 0.149,0.79 0.022,0.269 0.033,0.564 0.033,0.884 0.011,0.183 0.017,0.315 0.017,0.395 z"
             style="fill:#801416;fill-opacity:1;fill-rule:nonzero;stroke:none"
             id="path128" />
        </g>
        <g
           id="g130"
           transform="translate(118.7191,30.653)">
          <path
             d="M 0,0 H 1.986 L 1.357,3.658 C 1.291,3.979 1.225,4.465 1.159,5.118 L 1.125,5.444 C 1.114,5.662 1.087,5.948 1.043,6.303 H 1.01 C 0.965,5.948 0.938,5.662 0.927,5.444 L 0.894,5.118 C 0.828,4.465 0.761,3.979 0.695,3.658 Z M -3.458,-5.152 -0.496,7.729 H 2.631 L 5.445,-5.152 H 2.962 L 2.35,-1.889 h -2.714 l -0.612,-3.263 z"
             style="fill:#801416;fill-opacity:1;fill-rule:nonzero;stroke:none"
             id="path132" />
        </g>
        <g
           id="g134"
           transform="translate(123.6839,38.3815)">
          <path
             d="M 0,0 H 7.729 V -1.889 H 5.031 V -12.881 H 2.714 v 10.992 l -2.714,0 z"
             style="fill:#801416;fill-opacity:1;fill-rule:nonzero;stroke:none"
             id="path136" />
        </g>
        <path
           d="m 132.819,38.382 h 2.316 V 25.501 h -2.316 z"
           style="fill:#801416;fill-opacity:1;fill-rule:nonzero;stroke:none"
           id="path138" />
        <g
           id="g140"
           transform="translate(139.6702,29.9318)">
          <path
             d="M 0,0 C 0,-0.355 0.017,-0.682 0.049,-0.979 0.083,-1.277 0.154,-1.566 0.265,-1.846 0.375,-2.127 0.543,-2.356 0.77,-2.533 0.996,-2.711 1.296,-2.8 1.671,-2.8 c 0.386,0 0.698,0.092 0.935,0.275 0.237,0.183 0.406,0.421 0.505,0.713 0.099,0.292 0.163,0.592 0.19,0.902 0.028,0.309 0.042,0.681 0.042,1.116 V 3.503 C 3.343,3.95 3.329,4.345 3.301,4.688 3.274,5.032 3.208,5.367 3.103,5.693 2.998,6.02 2.83,6.289 2.598,6.5 2.366,6.712 2.057,6.818 1.671,6.818 1.296,6.818 0.996,6.729 0.77,6.552 0.543,6.375 0.375,6.134 0.265,5.831 0.154,5.527 0.083,5.195 0.049,4.834 0.017,4.474 0,4.053 0,3.572 Z m -2.383,3.04 c 0.033,0.996 0.093,1.812 0.182,2.447 0.088,0.636 0.262,1.202 0.521,1.7 0.259,0.499 0.659,0.885 1.2,1.16 0.541,0.275 1.258,0.412 2.151,0.412 0.894,0 1.611,-0.137 2.152,-0.412 C 4.363,8.072 4.763,7.686 5.022,7.187 5.282,6.689 5.455,6.123 5.543,5.487 5.632,4.852 5.693,4.036 5.726,3.04 V 1.202 C 5.726,0.183 5.687,-0.661 5.61,-1.331 5.533,-2.001 5.362,-2.593 5.097,-3.109 4.832,-3.624 4.424,-4.025 3.872,-4.311 3.32,-4.597 2.587,-4.74 1.671,-4.74 c -0.916,0 -1.649,0.143 -2.201,0.429 -0.552,0.286 -0.959,0.687 -1.224,1.202 -0.265,0.516 -0.436,1.108 -0.513,1.778 -0.078,0.67 -0.116,1.514 -0.116,2.533 z"
             style="fill:#801416;fill-opacity:1;fill-rule:nonzero;stroke:none"
             id="path142" />
        </g>
        <g
           id="g144"
           transform="translate(153.0579,38.3815)">
          <path
             d="m 0,0 h 2.317 v -12.881 h -2.416 l -1.804,4.586 c -0.298,0.744 -0.576,1.52 -0.836,2.327 -0.259,0.807 -0.532,1.737 -0.819,2.791 h -0.033 c 0.055,-0.767 0.102,-1.428 0.141,-1.984 0.038,-0.555 0.074,-1.119 0.107,-1.692 0.044,-0.744 0.075,-1.417 0.092,-2.018 0.016,-0.601 0.024,-1.13 0.024,-1.588 v -2.422 H -5.543 V 0 h 2.399 l 1.804,-4.688 c 0.308,-0.768 0.592,-1.555 0.852,-2.362 0.259,-0.807 0.527,-1.726 0.802,-2.757 H 0.348 C 0.249,-8.421 0.171,-7.202 0.116,-6.148 0.039,-4.706 0,-3.498 0,-2.524 Z"
             style="fill:#801416;fill-opacity:1;fill-rule:nonzero;stroke:none"
             id="path146" />
        </g>
        <g
           id="g148"
           transform="translate(164.0633,25.5007)">
          <path
             d="M 0,0 H -2.317 V 12.881 H 1.374 L 2.614,6.904 C 2.791,6.034 2.935,5.043 3.045,3.933 h 0.033 c 0.066,0.755 0.124,1.345 0.173,1.769 0.05,0.423 0.114,0.824 0.191,1.202 l 1.241,5.977 H 8.357 V 0 H 6.04 v 4.053 c 0,2.84 0.066,5.399 0.199,7.677 H 6.206 L 3.723,0 H 2.316 L -0.116,11.73 H -0.199 C -0.066,9.452 0,6.893 0,4.053 Z"
             style="fill:#801416;fill-opacity:1;fill-rule:nonzero;stroke:none"
             id="path150" />
        </g>
        <g
           id="g152"
           transform="translate(177.1199,30.653)">
          <path
             d="M 0,0 H 1.986 L 1.357,3.658 C 1.291,3.979 1.225,4.465 1.159,5.118 L 1.125,5.444 C 1.114,5.662 1.087,5.948 1.043,6.303 H 1.01 C 0.965,5.948 0.938,5.662 0.927,5.444 L 0.894,5.118 C 0.828,4.465 0.761,3.979 0.695,3.658 Z M -3.458,-5.152 -0.496,7.729 H 2.631 L 5.445,-5.152 H 2.962 L 2.35,-1.889 h -2.714 l -0.612,-3.263 z"
             style="fill:#801416;fill-opacity:1;fill-rule:nonzero;stroke:none"
             id="path154" />
        </g>
        <g
           id="g156"
           transform="translate(188.5721,34.4655)">
          <path
             d="M 0,0 C 0,0.744 -0.088,1.311 -0.265,1.701 -0.441,2.09 -0.806,2.285 -1.357,2.285 -1.766,2.285 -2.08,2.19 -2.3,2.001 -2.521,1.812 -2.631,1.506 -2.631,1.082 c 0,-0.435 0.102,-0.77 0.306,-1.004 0.204,-0.235 0.532,-0.507 0.984,-0.816 l 0.033,-0.017 c 0.276,-0.184 0.53,-0.355 0.762,-0.516 0.232,-0.16 0.468,-0.329 0.712,-0.506 0.242,-0.178 0.487,-0.364 0.736,-0.558 0.248,-0.195 0.449,-0.373 0.604,-0.533 0.386,-0.389 0.656,-0.793 0.81,-1.211 0.155,-0.418 0.232,-0.913 0.232,-1.485 0,-1.191 -0.347,-2.107 -1.042,-2.748 -0.695,-0.642 -1.622,-0.962 -2.78,-0.962 -0.673,0 -1.253,0.094 -1.738,0.283 -0.486,0.189 -0.877,0.455 -1.175,0.799 -0.298,0.343 -0.516,0.753 -0.654,1.228 -0.138,0.475 -0.206,1.01 -0.206,1.606 v 0.944 h 2.317 v -0.755 c 0,-0.71 0.112,-1.248 0.338,-1.615 0.226,-0.366 0.599,-0.549 1.118,-0.549 0.96,0 1.44,0.503 1.44,1.511 0,0.366 -0.078,0.687 -0.232,0.962 -0.155,0.275 -0.387,0.521 -0.695,0.738 -0.265,0.218 -0.685,0.521 -1.258,0.911 -0.596,0.4 -1.073,0.75 -1.432,1.047 -0.358,0.298 -0.681,0.636 -0.967,1.014 -0.398,0.606 -0.597,1.265 -0.597,1.975 0,1.11 0.304,1.955 0.911,2.533 0.606,0.578 1.517,0.867 2.73,0.867 0.838,0 1.509,-0.14 2.011,-0.421 C 1.139,3.524 1.503,3.171 1.729,2.748 1.955,2.324 2.096,1.907 2.151,1.495 2.206,1.082 2.234,0.63 2.234,0.138 V 0 Z"
             style="fill:#801416;fill-opacity:1;fill-rule:nonzero;stroke:none"
             id="path158" />
        </g>
        <g
           id="g160"
           transform="translate(192.1961,38.3815)">
          <path
             d="M 0,0 H 7.729 V -1.889 H 5.031 V -12.881 H 2.714 v 10.992 l -2.714,0 z"
             style="fill:#801416;fill-opacity:1;fill-rule:nonzero;stroke:none"
             id="path162" />
        </g>
        <g
           id="g164"
           transform="translate(201.2484,25.5007)">
          <path
             d="M 0,0 V 12.881 H 6.52 V 10.992 H 2.317 V 7.746 H 6.189 V 5.856 H 2.317 V 1.889 H 6.52 V 0 Z"
             style="fill:#801416;fill-opacity:1;fill-rule:nonzero;stroke:none"
             id="path166" />
        </g>
        <g
           id="g168"
           transform="translate(211.8729,32.9372)">
          <path
             d="M 0,0 H 1.82 C 2.228,0.023 2.557,0.186 2.805,0.49 3.053,0.793 3.177,1.248 3.177,1.855 3.177,2.53 3.059,2.98 2.821,3.203 2.584,3.426 2.217,3.543 1.721,3.555 H 0 Z M 0,-1.889 V -7.437 H -2.317 V 5.444 H 2.068 C 2.598,5.444 3.075,5.393 3.5,5.29 3.924,5.187 4.294,5.015 4.608,4.774 4.923,4.534 5.166,4.213 5.337,3.813 5.508,3.412 5.593,2.925 5.593,2.353 5.593,1.963 5.565,1.6 5.511,1.262 5.455,0.924 5.356,0.612 5.213,0.326 5.069,0.04 4.874,-0.197 4.625,-0.386 4.377,-0.575 4.065,-0.699 3.69,-0.756 V -0.79 c 0.651,-0.092 1.112,-0.338 1.382,-0.738 0.27,-0.401 0.406,-0.934 0.406,-1.597 0,-0.527 0.005,-0.994 0.016,-1.4 C 5.505,-4.932 5.527,-5.327 5.56,-5.71 5.593,-6.094 5.643,-6.42 5.709,-6.689 5.775,-6.958 5.863,-7.127 5.974,-7.196 V -7.437 H 3.425 c -0.099,0.298 -0.162,0.676 -0.19,1.134 -0.027,0.458 -0.047,1.002 -0.058,1.632 v 0.498 0.103 C 3.166,-3.773 3.155,-3.535 3.144,-3.357 3.133,-3.18 3.103,-3 3.053,-2.816 c -0.05,0.182 -0.13,0.34 -0.24,0.472 -0.11,0.131 -0.254,0.226 -0.43,0.283 -0.243,0.08 -0.508,0.129 -0.795,0.146 -0.287,0.017 -0.678,0.026 -1.174,0.026 z"
             style="fill:#801416;fill-opacity:1;fill-rule:nonzero;stroke:none"
             id="path170" />
        </g>
        <g
           id="g172"
           transform="translate(222.3158,34.9982)">
          <path
             d="m 0,0 c 0.275,-0.71 0.458,-1.368 0.546,-1.975 h 0.033 c 0.066,0.4 0.149,0.753 0.248,1.056 0.099,0.303 0.237,0.684 0.414,1.142 0.044,0.103 0.077,0.183 0.099,0.241 L 2.449,3.383 H 4.981 L 1.704,-4.019 v -5.479 h -2.316 v 5.479 l -3.227,7.402 h 2.531 z"
             style="fill:#801416;fill-opacity:1;fill-rule:nonzero;stroke:none"
             id="path174" />
        </g>
        <g
           id="g176"
           transform="translate(237.4744,34.4655)">
          <path
             d="M 0,0 C 0,0.744 -0.088,1.311 -0.265,1.701 -0.441,2.09 -0.806,2.285 -1.357,2.285 -1.766,2.285 -2.08,2.19 -2.3,2.001 -2.521,1.812 -2.631,1.506 -2.631,1.082 c 0,-0.435 0.102,-0.77 0.306,-1.004 0.204,-0.235 0.532,-0.507 0.984,-0.816 l 0.033,-0.017 c 0.276,-0.184 0.53,-0.355 0.762,-0.516 0.232,-0.16 0.468,-0.329 0.712,-0.506 0.242,-0.178 0.487,-0.364 0.736,-0.558 0.248,-0.195 0.449,-0.373 0.604,-0.533 0.386,-0.389 0.656,-0.793 0.81,-1.211 0.155,-0.418 0.232,-0.913 0.232,-1.485 0,-1.191 -0.347,-2.107 -1.042,-2.748 -0.695,-0.642 -1.622,-0.962 -2.78,-0.962 -0.673,0 -1.253,0.094 -1.738,0.283 -0.486,0.189 -0.877,0.455 -1.175,0.799 -0.298,0.343 -0.516,0.753 -0.654,1.228 -0.138,0.475 -0.206,1.01 -0.206,1.606 v 0.944 h 2.317 v -0.755 c 0,-0.71 0.112,-1.248 0.338,-1.615 0.226,-0.366 0.599,-0.549 1.118,-0.549 0.96,0 1.44,0.503 1.44,1.511 0,0.366 -0.078,0.687 -0.232,0.962 -0.155,0.275 -0.387,0.521 -0.695,0.738 -0.265,0.218 -0.685,0.521 -1.258,0.911 -0.596,0.4 -1.073,0.75 -1.432,1.047 -0.358,0.298 -0.681,0.636 -0.967,1.014 -0.398,0.606 -0.597,1.265 -0.597,1.975 0,1.11 0.304,1.955 0.911,2.533 0.606,0.578 1.517,0.867 2.73,0.867 0.838,0 1.509,-0.14 2.011,-0.421 C 1.139,3.524 1.503,3.171 1.729,2.748 1.955,2.324 2.096,1.907 2.151,1.495 2.206,1.082 2.234,0.63 2.234,0.138 V 0 Z"
             style="fill:#801416;fill-opacity:1;fill-rule:nonzero;stroke:none"
             id="path178" />
        </g>
        <g
           id="g180"
           transform="translate(244.2098,29.9318)">
          <path
             d="M 0,0 C 0,-0.355 0.017,-0.682 0.049,-0.979 0.083,-1.277 0.154,-1.566 0.265,-1.846 0.375,-2.127 0.543,-2.356 0.77,-2.533 0.996,-2.711 1.296,-2.8 1.671,-2.8 c 0.386,0 0.698,0.092 0.935,0.275 0.237,0.183 0.406,0.421 0.505,0.713 0.099,0.292 0.163,0.592 0.19,0.902 0.028,0.309 0.042,0.681 0.042,1.116 V 3.503 C 3.343,3.95 3.329,4.345 3.301,4.688 3.274,5.032 3.208,5.367 3.103,5.693 2.998,6.02 2.83,6.289 2.598,6.5 2.366,6.712 2.057,6.818 1.671,6.818 1.296,6.818 0.996,6.729 0.77,6.552 0.543,6.375 0.375,6.134 0.265,5.831 0.154,5.527 0.083,5.195 0.049,4.834 0.017,4.474 0,4.053 0,3.572 Z m -2.383,3.04 c 0.033,0.996 0.093,1.812 0.182,2.447 0.088,0.636 0.262,1.202 0.521,1.7 0.259,0.499 0.659,0.885 1.2,1.16 0.541,0.275 1.258,0.412 2.151,0.412 0.894,0 1.611,-0.137 2.152,-0.412 C 4.363,8.072 4.763,7.686 5.022,7.187 5.282,6.689 5.455,6.123 5.543,5.487 5.632,4.852 5.693,4.036 5.726,3.04 V 1.202 C 5.726,0.183 5.687,-0.661 5.61,-1.331 5.533,-2.001 5.362,-2.593 5.097,-3.109 4.832,-3.624 4.424,-4.025 3.872,-4.311 3.32,-4.597 2.587,-4.74 1.671,-4.74 c -0.916,0 -1.649,0.143 -2.201,0.429 -0.552,0.286 -0.959,0.687 -1.224,1.202 -0.265,0.516 -0.436,1.108 -0.513,1.778 -0.078,0.67 -0.116,1.514 -0.116,2.533 z"
             style="fill:#801416;fill-opacity:1;fill-rule:nonzero;stroke:none"
             id="path182" />
        </g>
        <g
           id="g184"
           transform="translate(252.054,25.5007)">
          <path
             d="M 0,0 V 12.881 H 2.316 V 1.889 H 6.619 V 0 Z"
             style="fill:#801416;fill-opacity:1;fill-rule:nonzero;stroke:none"
             id="path186" />
        </g>
        <g
           id="g188"
           transform="translate(265.8885,38.3815)">
          <path
             d="m 0,0 h 2.317 v -8.982 c 0,-1.477 -0.287,-2.548 -0.86,-3.212 -0.574,-0.664 -1.595,-0.996 -3.062,-0.996 -1.478,0 -2.507,0.332 -3.086,0.996 -0.58,0.664 -0.869,1.735 -0.869,3.212 V 0 h 2.316 v -8.776 c 0,-0.378 0.017,-0.704 0.05,-0.979 0.033,-0.275 0.102,-0.524 0.207,-0.747 0.105,-0.224 0.27,-0.404 0.497,-0.541 0.225,-0.138 0.526,-0.207 0.902,-0.207 0.363,0 0.653,0.069 0.868,0.207 0.216,0.137 0.375,0.317 0.48,0.541 0.105,0.223 0.171,0.472 0.198,0.747 C -0.014,-9.48 0,-9.154 0,-8.776 Z"
             style="fill:#801416;fill-opacity:1;fill-rule:nonzero;stroke:none"
             id="path190" />
        </g>
        <g
           id="g192"
           transform="translate(269.5955,38.3815)">
          <path
             d="M 0,0 H 7.729 V -1.889 H 5.031 V -12.881 H 2.714 v 10.992 l -2.714,0 z"
             style="fill:#801416;fill-opacity:1;fill-rule:nonzero;stroke:none"
             id="path194" />
        </g>
        <path
           d="m 278.731,38.382 h 2.316 V 25.501 h -2.316 z"
           style="fill:#801416;fill-opacity:1;fill-rule:nonzero;stroke:none"
           id="path196" />
        <g
           id="g198"
           transform="translate(285.5818,29.9318)">
          <path
             d="M 0,0 C 0,-0.355 0.017,-0.682 0.049,-0.979 0.083,-1.277 0.154,-1.566 0.265,-1.846 0.375,-2.127 0.543,-2.356 0.77,-2.533 0.996,-2.711 1.296,-2.8 1.671,-2.8 c 0.386,0 0.698,0.092 0.935,0.275 0.237,0.183 0.406,0.421 0.505,0.713 0.099,0.292 0.163,0.592 0.19,0.902 0.028,0.309 0.042,0.681 0.042,1.116 V 3.503 C 3.343,3.95 3.329,4.345 3.301,4.688 3.274,5.032 3.208,5.367 3.103,5.693 2.998,6.02 2.83,6.289 2.598,6.5 2.366,6.712 2.057,6.818 1.671,6.818 1.296,6.818 0.996,6.729 0.77,6.552 0.543,6.375 0.375,6.134 0.265,5.831 0.154,5.527 0.083,5.195 0.049,4.834 0.017,4.474 0,4.053 0,3.572 Z m -2.383,3.04 c 0.033,0.996 0.093,1.812 0.182,2.447 0.088,0.636 0.262,1.202 0.521,1.7 0.259,0.499 0.659,0.885 1.2,1.16 0.541,0.275 1.258,0.412 2.151,0.412 0.894,0 1.611,-0.137 2.152,-0.412 C 4.363,8.072 4.763,7.686 5.022,7.187 5.282,6.689 5.455,6.123 5.543,5.487 5.632,4.852 5.693,4.036 5.726,3.04 V 1.202 C 5.726,0.183 5.687,-0.661 5.61,-1.331 5.533,-2.001 5.362,-2.593 5.097,-3.109 4.832,-3.624 4.424,-4.025 3.872,-4.311 3.32,-4.597 2.587,-4.74 1.671,-4.74 c -0.916,0 -1.649,0.143 -2.201,0.429 -0.552,0.286 -0.959,0.687 -1.224,1.202 -0.265,0.516 -0.436,1.108 -0.513,1.778 -0.078,0.67 -0.116,1.514 -0.116,2.533 z"
             style="fill:#801416;fill-opacity:1;fill-rule:nonzero;stroke:none"
             id="path200" />
        </g>
        <g
           id="g202"
           transform="translate(298.9695,38.3815)">
          <path
             d="m 0,0 h 2.317 v -12.881 h -2.416 l -1.804,4.586 c -0.298,0.744 -0.576,1.52 -0.836,2.327 -0.259,0.807 -0.532,1.737 -0.819,2.791 h -0.033 c 0.055,-0.767 0.102,-1.428 0.141,-1.984 0.038,-0.555 0.074,-1.119 0.107,-1.692 0.044,-0.744 0.075,-1.417 0.092,-2.018 0.016,-0.601 0.024,-1.13 0.024,-1.588 v -2.422 H -5.543 V 0 h 2.399 l 1.804,-4.688 c 0.308,-0.768 0.592,-1.555 0.852,-2.362 0.259,-0.807 0.527,-1.726 0.802,-2.757 H 0.348 C 0.249,-8.421 0.171,-7.202 0.116,-6.148 0.039,-4.706 0,-3.498 0,-2.524 Z"
             style="fill:#801416;fill-opacity:1;fill-rule:nonzero;stroke:none"
             id="path204" />
        </g>
        <g
           id="g206"
           transform="translate(308.2703,34.4655)">
          <path
             d="M 0,0 C 0,0.744 -0.088,1.311 -0.265,1.701 -0.441,2.09 -0.806,2.285 -1.357,2.285 -1.766,2.285 -2.08,2.19 -2.3,2.001 -2.521,1.812 -2.631,1.506 -2.631,1.082 c 0,-0.435 0.102,-0.77 0.306,-1.004 0.204,-0.235 0.532,-0.507 0.984,-0.816 l 0.033,-0.017 c 0.276,-0.184 0.53,-0.355 0.762,-0.516 0.232,-0.16 0.468,-0.329 0.712,-0.506 0.242,-0.178 0.487,-0.364 0.736,-0.558 0.248,-0.195 0.449,-0.373 0.604,-0.533 0.386,-0.389 0.656,-0.793 0.81,-1.211 0.155,-0.418 0.232,-0.913 0.232,-1.485 0,-1.191 -0.347,-2.107 -1.042,-2.748 -0.695,-0.642 -1.622,-0.962 -2.78,-0.962 -0.673,0 -1.253,0.094 -1.738,0.283 -0.486,0.189 -0.877,0.455 -1.175,0.799 -0.298,0.343 -0.516,0.753 -0.654,1.228 -0.138,0.475 -0.206,1.01 -0.206,1.606 v 0.944 h 2.317 v -0.755 c 0,-0.71 0.112,-1.248 0.338,-1.615 0.226,-0.366 0.599,-0.549 1.118,-0.549 0.96,0 1.44,0.503 1.44,1.511 0,0.366 -0.078,0.687 -0.232,0.962 -0.155,0.275 -0.387,0.521 -0.695,0.738 -0.265,0.218 -0.685,0.521 -1.258,0.911 -0.596,0.4 -1.073,0.75 -1.432,1.047 -0.358,0.298 -0.681,0.636 -0.967,1.014 -0.398,0.606 -0.597,1.265 -0.597,1.975 0,1.11 0.304,1.955 0.911,2.533 0.606,0.578 1.517,0.867 2.73,0.867 0.838,0 1.509,-0.14 2.011,-0.421 C 1.139,3.524 1.503,3.171 1.729,2.748 1.955,2.324 2.096,1.907 2.151,1.495 2.206,1.082 2.234,0.63 2.234,0.138 V 0 Z"
             style="fill:#801416;fill-opacity:1;fill-rule:nonzero;stroke:none"
             id="path208" />
        </g>
      </g>
    </g>
  </g>
</svg>
