<?xml version="1.0" encoding="UTF-8"?><svg id="Layer_1" xmlns="http://www.w3.org/2000/svg" viewBox="0 0 461.88 383.36"><defs><style>.cls-1{fill:#00427a;}.cls-2{fill:#fff;}.cls-3{fill:#801517;}.cls-4{fill:none;}</style></defs><path class="cls-3" d="m461.88,9.49v363.82c0,5.56-4.5,10.06-10.06,10.06h-52.46V85.6c-93.8-22.94-168.88,50.56-168.88,50.56C270.17,58.24,408.01,12.65,449.79.39c6.06-1.78,12.09,2.78,12.09,9.1Z"/><path class="cls-1" d="m0,9.53v373.83h62.52s0-297.76,0-297.76c93.8-22.94,168.88,50.56,168.88,50.56C191.72,58.27,53.96,12.68,12.14.4,6.05-1.38,0,3.19,0,9.53Z"/><polygon class="cls-2" points="32.17 34.52 37.35 45.01 48.93 46.7 40.55 54.87 42.53 66.4 32.17 60.96 21.81 66.4 23.79 54.87 15.41 46.7 26.99 45.01 32.17 34.52"/><polygon class="cls-2" points="32.17 90.5 37.35 100.99 48.93 102.68 40.55 110.85 42.53 122.38 32.17 116.94 21.81 122.38 23.79 110.85 15.41 102.68 26.99 100.99 32.17 90.5"/><polygon class="cls-2" points="32.17 146.47 37.35 156.97 48.93 158.65 40.55 166.82 42.53 178.36 32.17 172.91 21.81 178.36 23.79 166.82 15.41 158.65 26.99 156.97 32.17 146.47"/><polygon class="cls-2" points="32.17 202.45 37.35 212.95 48.93 214.63 40.55 222.8 42.53 234.34 32.17 228.89 21.81 234.34 23.79 222.8 15.41 214.63 26.99 212.95 32.17 202.45"/><polygon class="cls-2" points="32.17 258.43 37.35 268.93 48.93 270.61 40.55 278.78 42.53 290.32 32.17 284.87 21.81 290.32 23.79 278.78 15.41 270.61 26.99 268.93 32.17 258.43"/><path class="cls-1" d="m143.07,204.06c-3.93,1.14-7.71,2.48-11.42,4.03-.17.07-.27.1-.27.1,8.97-.41,14.12-.48,16.97-.47,2.15,0,3.03.06,3.03.06l3.45-6.68c-3.09.36-7.55,1.61-11.76,2.96Z"/><path class="cls-1" d="m259.35,168.96c.37.17.74.33,1.11.5.12.02.27.03.27.03,0,0-.51-.2-1.38-.54Z"/><path class="cls-4" d="m347.69,216.98s-.69-1.65-2.01-4.35c.67,1.45,1.37,2.88,2.01,4.35Z"/><path class="cls-1" d="m192.44,150.71c.19-.19.37-.36.57-.55-.19.18-.38.37-.57.55Z"/><path class="cls-1" d="m216.22,129.54c-1.09.02-2.16.13-3.24.17-14.02.52-27.71,2.62-40.93,7.26-21.25,6.8-33.69,15.79-33.69,15.79-32.6,19.48-48.1,50.52-55.31,72.47-.38,1.12-.8,2.22-1.16,3.36-2.13,6.76-3.83,13.62-4.61,20.67-.15,1.07-.21,1.65-.21,1.65,2.39-6.58,4.96-13.06,8.08-19.31,1.59-3.18,3.36-6.22,5.18-9.23,14.2-22.84,41.91-52.68,92.85-62.99,1.26-.2,1.95-1.08,2.7-1.89,2.13-2.32,4.32-4.57,6.55-6.78.19-.19.38-.37.57-.55,6.26-6.08,15.13-14.23,23.09-19.94.33-.24.67-.49,1-.72l-.88.06Z"/><path class="cls-1" d="m355.85,298.36c.03-.16.06-.33.1-.49.17-.93.31-1.88.46-2.83.54-3.2.94-6.42,1.15-9.69.1-1.2.22-2.39.29-3.61.95-9.76.76-19.49-.82-29.19-.7-7.03-2.2-13.89-4.32-20.61h0c-.03-.18-.09-.27-.13-.42-.07-.21-.12-.42-.19-.63,0,0,0,0-.01,0-.44-.82-1.07-.82-1.07-.82-59.03,23.39-93.14,91.21-93.14,91.21,0,0,.1-.14.3-.4,2.09-2.73,14.77-19.08,31.69-34.93,1.05,1.82,9.64,16.8,14.35,28.2l1.87,4.98c-.08-3.32-.31-6.45-.63-9.42-1.68-17.43-5.63-27.91-7.09-31.31,10.84-9.17,22.79-17.36,34.58-21.52l.22-.09s1.43-.73,1.61-.42c.19.31,23.18,63.44-28.41,123.83,0,0,.35-.24.94-.69.8-.54,1.6-1.08,2.32-1.7.5-.44.97-.9,1.46-1.35,10.74-9.16,36.68-35.21,44.46-78.09Z"/><path class="cls-1" d="m237.44,131.13c-.52-.03-.38-.03-.78-.02-.71.06-1.39.23-2.07.63-8.16,4.8-16.12,9.88-23.4,15.98-12.45,9.15-23.22,20.01-32.93,31.98-9.64,10.97-17.88,22.91-24.83,35.75-5.87,9.73-10.77,19.92-14.74,30.56-5.39,12.82-9.12,26.13-11.84,39.74-1.72,8.57-2.94,17.2-3.09,26.01.85-2.06,1.52-4.16,2.15-6.27,5.42-14.96,21.53-54.52,52.67-94.67,11.96,2.67,24.01,6.89,31.18,9.62,2.12.85,4.26,1.68,6.37,2.55,1.24.51,1.94.49,2.75-.75,2.6-3.95,5.31-7.82,8.06-11.67.57-.79.83-1.42.62-1.95-.1-.43-.36-.64-.36-.64-15.99-7.07-30.9-8.94-38.61-9.41,10.9-12.74,23.12-25.18,37.29-36.76,0-.03.18-.15.18-.18,0,0,1.09-1.04,3.14-1.7,1.87.2,7.86,1,16.65,3.68.71.28,1.4.56,2.11.84l14.45,5.88c1.21.6,2.02.4,3.03-.4,0,0,14.16-10.53,23.09-16.4,1.18-.75,2.32-1.47,3.54-2.24-25.21-17.1-54.63-20.18-54.63-20.18Z"/><path class="cls-4" d="m302.22,159.44c.1-.03.21-.08.31-.11-.09.02-.22.07-.39.12.03,0,.05-.02.08-.02Z"/><path class="cls-1" d="m347.69,216.98c-.64-1.47-1.34-2.9-2.01-4.35-4.92-10.1-19.08-35.81-43.16-53.29-.1.03-.21.08-.31.11-.03,0-.05.01-.08.02-.63.22-1.73.63-2.58.96-15.99,6.29-36.95,25.3-36.95,25.3l-.26.23c-8.91,7.6-17.39,15.65-24.69,24.89-5.26,5.74-10.1,11.8-14.23,18.41-4.25,5.6-7.98,11.54-11.32,17.73-.11.19-.22.38-.32.57-.45.79-.89,1.58-1.34,2.38-.11.19-.22.38-.32.57l-.65,1.21c-5.32,9.52-10.07,19.29-13.7,29.59-6.31,15.66-10.36,31.89-12.36,48.67,2.11-5.53,4.41-10.97,6.8-16.36,15.31-39.52,36.01-63.63,45.65-73.41.99-.99,2.4-2.37,3.6-3.5,1.12-1.03,1.81-1.62,1.81-1.62,15.54,7.85,39.6,37.93,39.6,37.93l.14.11c.57.18.67,0,1.26-.72,2.06-2.52,4.19-4.99,6.38-7.4.61-.68.81-1.3.73-1.97h.02s-.02-.02-.03-.04c-.06-.4-.19-.81-.47-1.28-.15-.25-.31-.49-.46-.74-7.23-15.13-27.86-36.31-32.24-40.71,5.34-4.52,17.68-14.74,28.68-22.21.86-.56,1.71-1.13,2.58-1.68,2.7-1.65,5.82-3.49,6.98-3.91.52-.11,1.05-.1,1.63.45,0,0,19.51,19.12,28.65,37.83,0,0-.03-.12-.08-.33.69,1.33,1.41,1.53,2.84.53,6.1-4.25,12.5-8.01,19.11-11.42,1.18-.61,1.76-1.09,1.13-2.54Z"/><rect class="cls-3" y="321.97" width="340.57" height="61.39"/><rect class="cls-2" y="342.3" width="340.57" height="20.73"/></svg>